<?xml version="1.0" encoding="UTF-8" standalone="no"?>
<!DOCTYPE svg PUBLIC "-//W3C//DTD SVG 1.1//EN" "http://www.w3.org/Graphics/SVG/1.1/DTD/svg11.dtd">
<svg version="1.1" xmlns="http://www.w3.org/2000/svg" xmlns:xlink="http://www.w3.org/1999/xlink" preserveAspectRatio="xMidYMid meet" viewBox="211.03683039969866 185.42515445251414 50.56139111681995 50.56139111682003" width="46.56" height="46.56"><defs><path d="M258.6 206.57C258.6 208.42 258.6 210.97 258.6 212.83C258.6 214.5 257.25 215.85 255.57 215.85C246.87 215.85 223.76 215.85 215.06 215.85C213.39 215.85 212.04 214.5 212.04 212.83C212.04 210.97 212.04 208.42 212.04 206.57C212.04 204.91 213.39 203.55 215.06 203.55C223.76 203.55 246.87 203.55 255.57 203.55C257.25 203.55 258.6 204.91 258.6 206.57Z" id="acMZnvz1"></path><path d="M232.18 186.43C234.05 186.43 236.58 186.43 238.45 186.43C240.11 186.43 241.48 187.77 241.48 189.45C241.48 198.15 241.48 221.26 241.48 229.96C241.48 231.64 240.11 232.99 238.45 232.99C236.58 232.99 234.05 232.99 232.18 232.99C230.52 232.99 229.17 231.64 229.17 229.96C229.17 221.26 229.17 198.15 229.17 189.45C229.17 187.77 230.52 186.43 232.18 186.43Z" id="c19fKphDEi"></path></defs><g><g><use xlink:href="#acMZnvz1" opacity="1" fill="#c8c8c8" fill-opacity="1"></use><g><use xlink:href="#acMZnvz1" opacity="1" fill-opacity="0" stroke="#000000" stroke-width="1" stroke-opacity="0"></use></g></g><g><use xlink:href="#c19fKphDEi" opacity="1" fill="#c8c8c8" fill-opacity="1"></use><g><use xlink:href="#c19fKphDEi" opacity="1" fill-opacity="0" stroke="#000000" stroke-width="1" stroke-opacity="0"></use></g></g></g></svg>